<mxfile host="app.diagrams.net" agent="Mozilla/5.0 (Macintosh; Intel Mac OS X 10_15_7) AppleWebKit/537.36 (KHTML, like Gecko) Chrome/131.0.0.0 Safari/537.36" version="26.0.2">
  <diagram name="Page-1" id="Fhe5RWj88PebUGF2-ogD">
    <mxGraphModel dx="1466" dy="1993" grid="1" gridSize="10" guides="1" tooltips="1" connect="1" arrows="1" fold="1" page="1" pageScale="1" pageWidth="850" pageHeight="1100" math="0" shadow="0">
      <root>
        <mxCell id="0" />
        <mxCell id="1" parent="0" />
        <mxCell id="-M7w6B4ZRp7g75aN7Nrq-1" value="" style="rounded=0;whiteSpace=wrap;html=1;fillColor=#2e7956;direction=south;" vertex="1" parent="1">
          <mxGeometry x="440" y="-180" width="150" height="740" as="geometry" />
        </mxCell>
        <mxCell id="-M7w6B4ZRp7g75aN7Nrq-2" value="" style="rounded=0;whiteSpace=wrap;html=1;fillColor=#e5dc7b;rotation=0;direction=north;" vertex="1" parent="1">
          <mxGeometry x="440" y="-160" width="20" height="10" as="geometry" />
        </mxCell>
        <mxCell id="-M7w6B4ZRp7g75aN7Nrq-79" value="" style="shape=or;whiteSpace=wrap;html=1;direction=east;" vertex="1" parent="1">
          <mxGeometry x="440" y="232" width="30" height="20" as="geometry" />
        </mxCell>
        <mxCell id="-M7w6B4ZRp7g75aN7Nrq-105" value="&lt;font style=&quot;font-size: 14px;&quot; color=&quot;#ababab&quot;&gt;DQ&lt;/font&gt;&lt;div style=&quot;font-size: 14px;&quot;&gt;&lt;font color=&quot;#ababab&quot;&gt;x8&lt;/font&gt;&lt;/div&gt;" style="rounded=0;whiteSpace=wrap;html=1;strokeColor=#454744;fillColor=#464646;direction=south;" vertex="1" parent="1">
          <mxGeometry x="475" y="-160" width="80" height="60" as="geometry" />
        </mxCell>
        <mxCell id="-M7w6B4ZRp7g75aN7Nrq-137" value="&lt;font style=&quot;font-size: 14px;&quot; color=&quot;#ababab&quot;&gt;DQ&lt;/font&gt;&lt;div style=&quot;font-size: 14px;&quot;&gt;&lt;font color=&quot;#ababab&quot;&gt;x8&lt;/font&gt;&lt;/div&gt;" style="rounded=0;whiteSpace=wrap;html=1;strokeColor=#454744;fillColor=#464646;direction=south;" vertex="1" parent="1">
          <mxGeometry x="475" y="-80" width="80" height="60" as="geometry" />
        </mxCell>
        <mxCell id="-M7w6B4ZRp7g75aN7Nrq-138" value="&lt;font style=&quot;font-size: 14px;&quot; color=&quot;#ababab&quot;&gt;DQ&lt;/font&gt;&lt;div style=&quot;font-size: 14px;&quot;&gt;&lt;font color=&quot;#ababab&quot;&gt;x8&lt;/font&gt;&lt;/div&gt;" style="rounded=0;whiteSpace=wrap;html=1;strokeColor=#454744;fillColor=#464646;direction=south;" vertex="1" parent="1">
          <mxGeometry x="475" width="80" height="60" as="geometry" />
        </mxCell>
        <mxCell id="-M7w6B4ZRp7g75aN7Nrq-139" value="&lt;font style=&quot;font-size: 14px;&quot; color=&quot;#ababab&quot;&gt;DQ&lt;/font&gt;&lt;div style=&quot;font-size: 14px;&quot;&gt;&lt;font color=&quot;#ababab&quot;&gt;x8&lt;/font&gt;&lt;/div&gt;" style="rounded=0;whiteSpace=wrap;html=1;strokeColor=#454744;fillColor=#464646;direction=south;" vertex="1" parent="1">
          <mxGeometry x="475" y="80" width="80" height="60" as="geometry" />
        </mxCell>
        <mxCell id="-M7w6B4ZRp7g75aN7Nrq-140" value="&lt;font style=&quot;font-size: 14px;&quot; color=&quot;#ababab&quot;&gt;DQ&lt;/font&gt;&lt;div style=&quot;font-size: 14px;&quot;&gt;&lt;font color=&quot;#ababab&quot;&gt;x8&lt;/font&gt;&lt;/div&gt;" style="rounded=0;whiteSpace=wrap;html=1;strokeColor=#454744;fillColor=#464646;direction=south;" vertex="1" parent="1">
          <mxGeometry x="475" y="160" width="80" height="60" as="geometry" />
        </mxCell>
        <mxCell id="-M7w6B4ZRp7g75aN7Nrq-141" value="&lt;font style=&quot;font-size: 14px;&quot; color=&quot;#ababab&quot;&gt;DQ&lt;/font&gt;&lt;div style=&quot;font-size: 14px;&quot;&gt;&lt;font color=&quot;#ababab&quot;&gt;x8&lt;/font&gt;&lt;/div&gt;" style="rounded=0;whiteSpace=wrap;html=1;strokeColor=#454744;fillColor=#464646;direction=south;" vertex="1" parent="1">
          <mxGeometry x="475" y="240" width="80" height="60" as="geometry" />
        </mxCell>
        <mxCell id="-M7w6B4ZRp7g75aN7Nrq-142" value="&lt;font style=&quot;font-size: 14px;&quot; color=&quot;#ababab&quot;&gt;DQ&lt;/font&gt;&lt;div style=&quot;font-size: 14px;&quot;&gt;&lt;font color=&quot;#ababab&quot;&gt;x8&lt;/font&gt;&lt;/div&gt;" style="rounded=0;whiteSpace=wrap;html=1;strokeColor=#454744;fillColor=#464646;direction=south;" vertex="1" parent="1">
          <mxGeometry x="475" y="320" width="80" height="60" as="geometry" />
        </mxCell>
        <mxCell id="-M7w6B4ZRp7g75aN7Nrq-143" value="&lt;font style=&quot;font-size: 14px;&quot; color=&quot;#ababab&quot;&gt;DQ&lt;/font&gt;&lt;div style=&quot;font-size: 14px;&quot;&gt;&lt;font color=&quot;#ababab&quot;&gt;x8&lt;/font&gt;&lt;/div&gt;" style="rounded=0;whiteSpace=wrap;html=1;strokeColor=#454744;fillColor=#464646;direction=south;" vertex="1" parent="1">
          <mxGeometry x="475" y="400" width="80" height="60" as="geometry" />
        </mxCell>
        <mxCell id="-M7w6B4ZRp7g75aN7Nrq-144" value="&lt;div style=&quot;font-size: 14px;&quot;&gt;&lt;font color=&quot;#ababab&quot;&gt;ECCx8&lt;/font&gt;&lt;/div&gt;" style="rounded=0;whiteSpace=wrap;html=1;strokeColor=#454744;fillColor=#464646;direction=south;" vertex="1" parent="1">
          <mxGeometry x="475" y="480" width="80" height="60" as="geometry" />
        </mxCell>
        <mxCell id="-M7w6B4ZRp7g75aN7Nrq-145" value="" style="rounded=0;whiteSpace=wrap;html=1;fillColor=#e5dc7b;rotation=0;direction=north;" vertex="1" parent="1">
          <mxGeometry x="440" y="-150" width="20" height="10" as="geometry" />
        </mxCell>
        <mxCell id="-M7w6B4ZRp7g75aN7Nrq-146" value="" style="rounded=0;whiteSpace=wrap;html=1;fillColor=#e5dc7b;rotation=0;direction=north;" vertex="1" parent="1">
          <mxGeometry x="440" y="-140" width="20" height="10" as="geometry" />
        </mxCell>
        <mxCell id="-M7w6B4ZRp7g75aN7Nrq-147" value="" style="rounded=0;whiteSpace=wrap;html=1;fillColor=#e5dc7b;rotation=0;direction=north;" vertex="1" parent="1">
          <mxGeometry x="440" y="-130" width="20" height="10" as="geometry" />
        </mxCell>
        <mxCell id="-M7w6B4ZRp7g75aN7Nrq-148" value="" style="rounded=0;whiteSpace=wrap;html=1;fillColor=#e5dc7b;rotation=0;direction=north;" vertex="1" parent="1">
          <mxGeometry x="440" y="-120" width="20" height="10" as="geometry" />
        </mxCell>
        <mxCell id="-M7w6B4ZRp7g75aN7Nrq-149" value="" style="rounded=0;whiteSpace=wrap;html=1;fillColor=#e5dc7b;rotation=0;direction=north;" vertex="1" parent="1">
          <mxGeometry x="440" y="-110" width="20" height="10" as="geometry" />
        </mxCell>
        <mxCell id="-M7w6B4ZRp7g75aN7Nrq-150" value="" style="rounded=0;whiteSpace=wrap;html=1;fillColor=#e5dc7b;rotation=0;direction=north;" vertex="1" parent="1">
          <mxGeometry x="440" y="-100" width="20" height="10" as="geometry" />
        </mxCell>
        <mxCell id="-M7w6B4ZRp7g75aN7Nrq-151" value="" style="rounded=0;whiteSpace=wrap;html=1;fillColor=#e5dc7b;rotation=0;direction=north;" vertex="1" parent="1">
          <mxGeometry x="440" y="-90" width="20" height="10" as="geometry" />
        </mxCell>
        <mxCell id="-M7w6B4ZRp7g75aN7Nrq-152" value="" style="rounded=0;whiteSpace=wrap;html=1;fillColor=#e5dc7b;rotation=0;direction=north;" vertex="1" parent="1">
          <mxGeometry x="440" y="-80" width="20" height="10" as="geometry" />
        </mxCell>
        <mxCell id="-M7w6B4ZRp7g75aN7Nrq-153" value="" style="rounded=0;whiteSpace=wrap;html=1;fillColor=#e5dc7b;rotation=0;direction=north;" vertex="1" parent="1">
          <mxGeometry x="440" y="-70" width="20" height="10" as="geometry" />
        </mxCell>
        <mxCell id="-M7w6B4ZRp7g75aN7Nrq-154" value="" style="rounded=0;whiteSpace=wrap;html=1;fillColor=#e5dc7b;rotation=0;direction=north;" vertex="1" parent="1">
          <mxGeometry x="440" y="-60" width="20" height="10" as="geometry" />
        </mxCell>
        <mxCell id="-M7w6B4ZRp7g75aN7Nrq-155" value="" style="rounded=0;whiteSpace=wrap;html=1;fillColor=#e5dc7b;rotation=0;direction=north;" vertex="1" parent="1">
          <mxGeometry x="440" y="-50" width="20" height="10" as="geometry" />
        </mxCell>
        <mxCell id="-M7w6B4ZRp7g75aN7Nrq-156" value="" style="rounded=0;whiteSpace=wrap;html=1;fillColor=#e5dc7b;rotation=0;direction=north;" vertex="1" parent="1">
          <mxGeometry x="440" y="-40" width="20" height="10" as="geometry" />
        </mxCell>
        <mxCell id="-M7w6B4ZRp7g75aN7Nrq-157" value="" style="rounded=0;whiteSpace=wrap;html=1;fillColor=#e5dc7b;rotation=0;direction=north;" vertex="1" parent="1">
          <mxGeometry x="440" y="-30" width="20" height="10" as="geometry" />
        </mxCell>
        <mxCell id="-M7w6B4ZRp7g75aN7Nrq-158" value="" style="rounded=0;whiteSpace=wrap;html=1;fillColor=#e5dc7b;rotation=0;direction=north;" vertex="1" parent="1">
          <mxGeometry x="440" y="-20" width="20" height="10" as="geometry" />
        </mxCell>
        <mxCell id="-M7w6B4ZRp7g75aN7Nrq-159" value="" style="rounded=0;whiteSpace=wrap;html=1;fillColor=#e5dc7b;rotation=0;direction=north;" vertex="1" parent="1">
          <mxGeometry x="440" y="-10" width="20" height="10" as="geometry" />
        </mxCell>
        <mxCell id="-M7w6B4ZRp7g75aN7Nrq-160" value="" style="rounded=0;whiteSpace=wrap;html=1;fillColor=#e5dc7b;rotation=0;direction=north;" vertex="1" parent="1">
          <mxGeometry x="440" width="20" height="10" as="geometry" />
        </mxCell>
        <mxCell id="-M7w6B4ZRp7g75aN7Nrq-161" value="" style="rounded=0;whiteSpace=wrap;html=1;fillColor=#e5dc7b;rotation=0;direction=north;" vertex="1" parent="1">
          <mxGeometry x="440" y="10" width="20" height="10" as="geometry" />
        </mxCell>
        <mxCell id="-M7w6B4ZRp7g75aN7Nrq-162" value="" style="rounded=0;whiteSpace=wrap;html=1;fillColor=#e5dc7b;rotation=0;direction=north;" vertex="1" parent="1">
          <mxGeometry x="440" y="20" width="20" height="10" as="geometry" />
        </mxCell>
        <mxCell id="-M7w6B4ZRp7g75aN7Nrq-163" value="" style="rounded=0;whiteSpace=wrap;html=1;fillColor=#e5dc7b;rotation=0;direction=north;" vertex="1" parent="1">
          <mxGeometry x="440" y="30" width="20" height="10" as="geometry" />
        </mxCell>
        <mxCell id="-M7w6B4ZRp7g75aN7Nrq-164" value="" style="rounded=0;whiteSpace=wrap;html=1;fillColor=#e5dc7b;rotation=0;direction=north;" vertex="1" parent="1">
          <mxGeometry x="440" y="40" width="20" height="10" as="geometry" />
        </mxCell>
        <mxCell id="-M7w6B4ZRp7g75aN7Nrq-165" value="" style="rounded=0;whiteSpace=wrap;html=1;fillColor=#e5dc7b;rotation=0;direction=north;" vertex="1" parent="1">
          <mxGeometry x="440" y="50" width="20" height="10" as="geometry" />
        </mxCell>
        <mxCell id="-M7w6B4ZRp7g75aN7Nrq-166" value="" style="rounded=0;whiteSpace=wrap;html=1;fillColor=#e5dc7b;rotation=0;direction=north;" vertex="1" parent="1">
          <mxGeometry x="440" y="60" width="20" height="10" as="geometry" />
        </mxCell>
        <mxCell id="-M7w6B4ZRp7g75aN7Nrq-167" value="" style="rounded=0;whiteSpace=wrap;html=1;fillColor=#e5dc7b;rotation=0;direction=north;" vertex="1" parent="1">
          <mxGeometry x="440" y="70" width="20" height="10" as="geometry" />
        </mxCell>
        <mxCell id="-M7w6B4ZRp7g75aN7Nrq-168" value="" style="rounded=0;whiteSpace=wrap;html=1;fillColor=#e5dc7b;rotation=0;direction=north;" vertex="1" parent="1">
          <mxGeometry x="440" y="80" width="20" height="10" as="geometry" />
        </mxCell>
        <mxCell id="-M7w6B4ZRp7g75aN7Nrq-169" value="" style="rounded=0;whiteSpace=wrap;html=1;fillColor=#e5dc7b;rotation=0;direction=north;" vertex="1" parent="1">
          <mxGeometry x="440" y="90" width="20" height="10" as="geometry" />
        </mxCell>
        <mxCell id="-M7w6B4ZRp7g75aN7Nrq-170" value="" style="rounded=0;whiteSpace=wrap;html=1;fillColor=#e5dc7b;rotation=0;direction=north;" vertex="1" parent="1">
          <mxGeometry x="440" y="100" width="20" height="10" as="geometry" />
        </mxCell>
        <mxCell id="-M7w6B4ZRp7g75aN7Nrq-171" value="" style="rounded=0;whiteSpace=wrap;html=1;fillColor=#e5dc7b;rotation=0;direction=north;" vertex="1" parent="1">
          <mxGeometry x="440" y="110" width="20" height="10" as="geometry" />
        </mxCell>
        <mxCell id="-M7w6B4ZRp7g75aN7Nrq-172" value="" style="rounded=0;whiteSpace=wrap;html=1;fillColor=#e5dc7b;rotation=0;direction=north;" vertex="1" parent="1">
          <mxGeometry x="440" y="120" width="20" height="10" as="geometry" />
        </mxCell>
        <mxCell id="-M7w6B4ZRp7g75aN7Nrq-173" value="" style="rounded=0;whiteSpace=wrap;html=1;fillColor=#e5dc7b;rotation=0;direction=north;" vertex="1" parent="1">
          <mxGeometry x="440" y="130" width="20" height="10" as="geometry" />
        </mxCell>
        <mxCell id="-M7w6B4ZRp7g75aN7Nrq-174" value="" style="rounded=0;whiteSpace=wrap;html=1;fillColor=#e5dc7b;rotation=0;direction=north;" vertex="1" parent="1">
          <mxGeometry x="440" y="140" width="20" height="10" as="geometry" />
        </mxCell>
        <mxCell id="-M7w6B4ZRp7g75aN7Nrq-175" value="" style="rounded=0;whiteSpace=wrap;html=1;fillColor=#e5dc7b;rotation=0;direction=north;" vertex="1" parent="1">
          <mxGeometry x="440" y="150" width="20" height="10" as="geometry" />
        </mxCell>
        <mxCell id="-M7w6B4ZRp7g75aN7Nrq-176" value="" style="rounded=0;whiteSpace=wrap;html=1;fillColor=#e5dc7b;rotation=0;direction=north;" vertex="1" parent="1">
          <mxGeometry x="440" y="160" width="20" height="10" as="geometry" />
        </mxCell>
        <mxCell id="-M7w6B4ZRp7g75aN7Nrq-177" value="" style="rounded=0;whiteSpace=wrap;html=1;fillColor=#e5dc7b;rotation=0;direction=north;" vertex="1" parent="1">
          <mxGeometry x="440" y="170" width="20" height="10" as="geometry" />
        </mxCell>
        <mxCell id="-M7w6B4ZRp7g75aN7Nrq-178" value="" style="rounded=0;whiteSpace=wrap;html=1;fillColor=#e5dc7b;rotation=0;direction=north;" vertex="1" parent="1">
          <mxGeometry x="440" y="180" width="20" height="10" as="geometry" />
        </mxCell>
        <mxCell id="-M7w6B4ZRp7g75aN7Nrq-179" value="" style="rounded=0;whiteSpace=wrap;html=1;fillColor=#e5dc7b;rotation=0;direction=north;" vertex="1" parent="1">
          <mxGeometry x="440" y="190" width="20" height="10" as="geometry" />
        </mxCell>
        <mxCell id="-M7w6B4ZRp7g75aN7Nrq-180" value="" style="rounded=0;whiteSpace=wrap;html=1;fillColor=#e5dc7b;rotation=0;direction=north;" vertex="1" parent="1">
          <mxGeometry x="440" y="200" width="20" height="10" as="geometry" />
        </mxCell>
        <mxCell id="-M7w6B4ZRp7g75aN7Nrq-187" value="" style="rounded=0;whiteSpace=wrap;html=1;fillColor=#e5dc7b;rotation=0;direction=north;" vertex="1" parent="1">
          <mxGeometry x="440" y="270" width="20" height="10" as="geometry" />
        </mxCell>
        <mxCell id="-M7w6B4ZRp7g75aN7Nrq-188" value="" style="rounded=0;whiteSpace=wrap;html=1;fillColor=#e5dc7b;rotation=0;direction=north;" vertex="1" parent="1">
          <mxGeometry x="440" y="280" width="20" height="10" as="geometry" />
        </mxCell>
        <mxCell id="-M7w6B4ZRp7g75aN7Nrq-189" value="" style="rounded=0;whiteSpace=wrap;html=1;fillColor=#e5dc7b;rotation=0;direction=north;" vertex="1" parent="1">
          <mxGeometry x="440" y="290" width="20" height="10" as="geometry" />
        </mxCell>
        <mxCell id="-M7w6B4ZRp7g75aN7Nrq-190" value="" style="rounded=0;whiteSpace=wrap;html=1;fillColor=#e5dc7b;rotation=0;direction=north;" vertex="1" parent="1">
          <mxGeometry x="440" y="300" width="20" height="10" as="geometry" />
        </mxCell>
        <mxCell id="-M7w6B4ZRp7g75aN7Nrq-191" value="" style="rounded=0;whiteSpace=wrap;html=1;fillColor=#e5dc7b;rotation=0;direction=north;" vertex="1" parent="1">
          <mxGeometry x="440" y="310" width="20" height="10" as="geometry" />
        </mxCell>
        <mxCell id="-M7w6B4ZRp7g75aN7Nrq-219" value="" style="rounded=0;whiteSpace=wrap;html=1;fillColor=#e5dc7b;rotation=0;direction=north;" vertex="1" parent="1">
          <mxGeometry x="440" y="320" width="20" height="10" as="geometry" />
        </mxCell>
        <mxCell id="-M7w6B4ZRp7g75aN7Nrq-220" value="" style="rounded=0;whiteSpace=wrap;html=1;fillColor=#e5dc7b;rotation=0;direction=north;" vertex="1" parent="1">
          <mxGeometry x="440" y="330" width="20" height="10" as="geometry" />
        </mxCell>
        <mxCell id="-M7w6B4ZRp7g75aN7Nrq-221" value="" style="rounded=0;whiteSpace=wrap;html=1;fillColor=#e5dc7b;rotation=0;direction=north;" vertex="1" parent="1">
          <mxGeometry x="440" y="340" width="20" height="10" as="geometry" />
        </mxCell>
        <mxCell id="-M7w6B4ZRp7g75aN7Nrq-222" value="" style="rounded=0;whiteSpace=wrap;html=1;fillColor=#e5dc7b;rotation=0;direction=north;" vertex="1" parent="1">
          <mxGeometry x="440" y="350" width="20" height="10" as="geometry" />
        </mxCell>
        <mxCell id="-M7w6B4ZRp7g75aN7Nrq-223" value="" style="rounded=0;whiteSpace=wrap;html=1;fillColor=#e5dc7b;rotation=0;direction=north;" vertex="1" parent="1">
          <mxGeometry x="440" y="360" width="20" height="10" as="geometry" />
        </mxCell>
        <mxCell id="-M7w6B4ZRp7g75aN7Nrq-224" value="" style="rounded=0;whiteSpace=wrap;html=1;fillColor=#e5dc7b;rotation=0;direction=north;" vertex="1" parent="1">
          <mxGeometry x="440" y="370" width="20" height="10" as="geometry" />
        </mxCell>
        <mxCell id="-M7w6B4ZRp7g75aN7Nrq-225" value="" style="rounded=0;whiteSpace=wrap;html=1;fillColor=#e5dc7b;rotation=0;direction=north;" vertex="1" parent="1">
          <mxGeometry x="440" y="380" width="20" height="10" as="geometry" />
        </mxCell>
        <mxCell id="-M7w6B4ZRp7g75aN7Nrq-226" value="" style="rounded=0;whiteSpace=wrap;html=1;fillColor=#e5dc7b;rotation=0;direction=north;" vertex="1" parent="1">
          <mxGeometry x="440" y="390" width="20" height="10" as="geometry" />
        </mxCell>
        <mxCell id="-M7w6B4ZRp7g75aN7Nrq-227" value="" style="rounded=0;whiteSpace=wrap;html=1;fillColor=#e5dc7b;rotation=0;direction=north;" vertex="1" parent="1">
          <mxGeometry x="440" y="400" width="20" height="10" as="geometry" />
        </mxCell>
        <mxCell id="-M7w6B4ZRp7g75aN7Nrq-228" value="" style="rounded=0;whiteSpace=wrap;html=1;fillColor=#e5dc7b;rotation=0;direction=north;" vertex="1" parent="1">
          <mxGeometry x="440" y="410" width="20" height="10" as="geometry" />
        </mxCell>
        <mxCell id="-M7w6B4ZRp7g75aN7Nrq-229" value="" style="rounded=0;whiteSpace=wrap;html=1;fillColor=#e5dc7b;rotation=0;direction=north;" vertex="1" parent="1">
          <mxGeometry x="440" y="420" width="20" height="10" as="geometry" />
        </mxCell>
        <mxCell id="-M7w6B4ZRp7g75aN7Nrq-230" value="" style="rounded=0;whiteSpace=wrap;html=1;fillColor=#e5dc7b;rotation=0;direction=north;" vertex="1" parent="1">
          <mxGeometry x="440" y="430" width="20" height="10" as="geometry" />
        </mxCell>
        <mxCell id="-M7w6B4ZRp7g75aN7Nrq-231" value="" style="rounded=0;whiteSpace=wrap;html=1;fillColor=#e5dc7b;rotation=0;direction=north;" vertex="1" parent="1">
          <mxGeometry x="440" y="440" width="20" height="10" as="geometry" />
        </mxCell>
        <mxCell id="-M7w6B4ZRp7g75aN7Nrq-232" value="" style="rounded=0;whiteSpace=wrap;html=1;fillColor=#e5dc7b;rotation=0;direction=north;" vertex="1" parent="1">
          <mxGeometry x="440" y="450" width="20" height="10" as="geometry" />
        </mxCell>
        <mxCell id="-M7w6B4ZRp7g75aN7Nrq-233" value="" style="rounded=0;whiteSpace=wrap;html=1;fillColor=#e5dc7b;rotation=0;direction=north;" vertex="1" parent="1">
          <mxGeometry x="440" y="460" width="20" height="10" as="geometry" />
        </mxCell>
        <mxCell id="-M7w6B4ZRp7g75aN7Nrq-244" value="" style="rounded=0;whiteSpace=wrap;html=1;fillColor=#e5dc7b;rotation=0;direction=north;" vertex="1" parent="1">
          <mxGeometry x="440" y="470" width="20" height="10" as="geometry" />
        </mxCell>
        <mxCell id="-M7w6B4ZRp7g75aN7Nrq-245" value="" style="rounded=0;whiteSpace=wrap;html=1;fillColor=#e5dc7b;rotation=0;direction=north;" vertex="1" parent="1">
          <mxGeometry x="440" y="480" width="20" height="10" as="geometry" />
        </mxCell>
        <mxCell id="-M7w6B4ZRp7g75aN7Nrq-246" value="" style="rounded=0;whiteSpace=wrap;html=1;fillColor=#e5dc7b;rotation=0;direction=north;" vertex="1" parent="1">
          <mxGeometry x="440" y="490" width="20" height="10" as="geometry" />
        </mxCell>
        <mxCell id="-M7w6B4ZRp7g75aN7Nrq-247" value="" style="rounded=0;whiteSpace=wrap;html=1;fillColor=#e5dc7b;rotation=0;direction=north;" vertex="1" parent="1">
          <mxGeometry x="440" y="500" width="20" height="10" as="geometry" />
        </mxCell>
        <mxCell id="-M7w6B4ZRp7g75aN7Nrq-248" value="" style="rounded=0;whiteSpace=wrap;html=1;fillColor=#e5dc7b;rotation=0;direction=north;" vertex="1" parent="1">
          <mxGeometry x="440" y="510" width="20" height="10" as="geometry" />
        </mxCell>
        <mxCell id="-M7w6B4ZRp7g75aN7Nrq-249" value="" style="rounded=0;whiteSpace=wrap;html=1;fillColor=#e5dc7b;rotation=0;direction=north;" vertex="1" parent="1">
          <mxGeometry x="440" y="520" width="20" height="10" as="geometry" />
        </mxCell>
        <mxCell id="-M7w6B4ZRp7g75aN7Nrq-250" value="" style="rounded=0;whiteSpace=wrap;html=1;fillColor=#e5dc7b;rotation=0;direction=north;" vertex="1" parent="1">
          <mxGeometry x="440" y="530" width="20" height="10" as="geometry" />
        </mxCell>
      </root>
    </mxGraphModel>
  </diagram>
</mxfile>
